<svg id="Capa_1" data-name="Capa 1" xmlns="http://www.w3.org/2000/svg" viewBox="0 0 442.86 95.06"><defs><style>.cls-1,.cls-4{fill:#fef0ce;}.cls-1,.cls-2,.cls-3{fill-rule:evenodd;}.cls-2{fill:#000333;}.cls-3{fill:#eadfc5;}</style></defs><title>ribbon</title><polygon class="cls-1" points="147.03 80.94 0 80.94 36.76 53.96 0 26.98 147.03 26.98 147.03 80.94"/><path class="cls-2" d="M601.79,530c-.82,0-1.49.49-1.49,1.09v.36h-.49c-.83,0-1.49.5-1.49,1.1s.66,1.09,1.49,1.09h3.47v-2.55c0-.6-.67-1.09-1.49-1.09Zm0-9.21c-.82,0-1.49.49-1.49,1.1v3.06c0,.61.67,1.1,1.49,1.1s1.49-.49,1.49-1.1v-3.06c0-.61-.67-1.1-1.49-1.1Zm0-9.2c-.82,0-1.49.49-1.49,1.09v3.07c0,.6.67,1.09,1.49,1.09s1.49-.49,1.49-1.09v-3.07c0-.6-.67-1.09-1.49-1.09Zm0-9.21c-.82,0-1.49.5-1.49,1.1v3.07c0,.6.67,1.09,1.49,1.09s1.49-.49,1.49-1.09v-3.07c0-.6-.67-1.09-1.49-1.1Zm0-9.2c-.82,0-1.49.49-1.49,1.09v3.07c0,.61.67,1.1,1.49,1.1s1.49-.49,1.49-1.1v-3.07c0-.6-.67-1.09-1.49-1.09Zm-2-7.59c-.83,0-1.49.49-1.49,1.09s.66,1.1,1.49,1.1h.49v.37c0,.6.67,1.09,1.49,1.09s1.49-.49,1.49-1.09v-2.55Zm-69.89,2.18h3.89c.82,0,1.49-.49,1.49-1.09s-.67-1.09-1.49-1.09h-3.89c-.82,0-1.48.49-1.48,1.09s.66,1.1,1.48,1.09Zm-7.76-2.18h-3.88c-.82,0-1.49.49-1.49,1.09s.67,1.1,1.49,1.1h3.88c.82,0,1.49-.49,1.49-1.09s-.67-1.09-1.49-1.09Zm23.29,0h-3.88c-.82,0-1.49.49-1.49,1.09s.67,1.1,1.49,1.1h3.88c.82,0,1.49-.49,1.49-1.09s-.67-1.09-1.49-1.09Zm-46.58,0H495c-.82,0-1.49.49-1.49,1.09s.67,1.1,1.49,1.1h3.89c.82,0,1.49-.49,1.49-1.09s-.67-1.09-1.49-1.09Zm11.65,0h-3.89c-.82,0-1.49.49-1.49,1.09s.67,1.1,1.49,1.1h3.89c.82,0,1.48-.49,1.48-1.09s-.66-1.09-1.48-1.09Zm46.58,0h-3.88c-.82,0-1.49.49-1.49,1.09s.67,1.1,1.49,1.1h3.88c.82,0,1.49-.49,1.49-1.09s-.67-1.09-1.49-1.09Zm-73.76,2.18h3.88c.82,0,1.49-.49,1.49-1.09s-.67-1.09-1.49-1.09h-3.88c-.82,0-1.49.49-1.49,1.09s.67,1.1,1.49,1.09Zm97.05-2.18h-3.88c-.82,0-1.49.49-1.49,1.09s.67,1.1,1.49,1.1h3.88c.82,0,1.49-.49,1.49-1.09s-.67-1.09-1.49-1.09Zm11.65,0h-3.88c-.82,0-1.49.49-1.49,1.09s.67,1.1,1.49,1.1H592c.82,0,1.49-.49,1.49-1.09s-.67-1.09-1.49-1.09Zm-23.29,0h-3.88c-.83,0-1.5.49-1.5,1.09s.67,1.1,1.5,1.1h3.88c.82,0,1.48-.49,1.48-1.09s-.66-1.09-1.48-1.09Zm-93.18,0H470l3.95,2.9a1.88,1.88,0,0,0,2.1,0,.93.93,0,0,0,.42-.93,1,1,0,0,0,.6-.88c0-.6-.67-1.09-1.49-1.09ZM489,496.42a1.89,1.89,0,0,0-2.11,0,.9.9,0,0,0,0,1.54l2.59,1.9a1.88,1.88,0,0,0,2.1,0,.9.9,0,0,0,0-1.54l-2.58-1.9Zm8.23,9.13a1.74,1.74,0,0,0,1.05.32,1.7,1.7,0,0,0,1.05-.32.89.89,0,0,0,0-1.54l-2.57-1.9a1.92,1.92,0,0,0-2.11,0,.9.9,0,0,0,0,1.54l2.58,1.9Zm-15.51-11.38a1.9,1.9,0,0,0,2.11,0,.91.91,0,0,0,0-1.55l-2.59-1.9a1.91,1.91,0,0,0-2.1,0,.91.91,0,0,0,0,1.55l2.58,1.9Zm22.79,13.63a1.92,1.92,0,0,0-2.11,0,.92.92,0,0,0,0,1.55l.36.26-.36.25a.92.92,0,0,0,0,1.55,1.84,1.84,0,0,0,1.06.32,1.81,1.81,0,0,0,1.05-.32l2.46-1.8-2.46-1.81ZM483.8,525a1.92,1.92,0,0,0-2.11,0l-2.58,1.9a.91.91,0,0,0,0,1.55,1.93,1.93,0,0,0,2.1,0l2.59-1.9a.91.91,0,0,0,0-1.55Zm10.82-7.94a1.81,1.81,0,0,0,1.05.32,1.79,1.79,0,0,0,1.05-.32l2.59-1.9a.9.9,0,0,0,0-1.54,1.87,1.87,0,0,0-2.1,0l-2.58,1.89a.91.91,0,0,0,0,1.55Zm-5.17,2.25-2.59,1.9a.9.9,0,0,0,0,1.54,1.9,1.9,0,0,0,2.11,0l2.58-1.89a.9.9,0,0,0,0-1.55,1.87,1.87,0,0,0-2.1,0ZM476,530.74a1.87,1.87,0,0,0-2.1,0L470,533.63h5.58c.82,0,1.49-.49,1.49-1.09a1,1,0,0,0-.6-.87.9.9,0,0,0-.42-.93Zm11.18.7h-3.88c-.82,0-1.49.5-1.49,1.1s.67,1.09,1.49,1.09h3.88c.82,0,1.49-.49,1.49-1.09s-.67-1.1-1.49-1.1Zm11.65,0H495c-.82,0-1.49.5-1.49,1.1s.67,1.09,1.49,1.09h3.89c.82,0,1.49-.49,1.49-1.09s-.67-1.1-1.49-1.1Zm58.23,0h-3.88c-.82,0-1.49.5-1.49,1.1s.67,1.09,1.49,1.09h3.88c.82,0,1.49-.49,1.49-1.09s-.67-1.1-1.49-1.1Zm11.65,0h-3.88c-.83,0-1.5.5-1.5,1.1s.67,1.09,1.5,1.09h3.88c.82,0,1.48-.49,1.48-1.09s-.66-1.1-1.48-1.1Zm-58.23,0h-3.89c-.82,0-1.49.5-1.49,1.1s.67,1.09,1.49,1.09h3.89c.82,0,1.48-.49,1.48-1.09s-.66-1.1-1.48-1.1Zm81.52,0h-3.88c-.82,0-1.49.5-1.49,1.1s.67,1.09,1.49,1.09H592c.82,0,1.49-.49,1.49-1.09s-.67-1.1-1.49-1.1Zm-11.65,0h-3.88c-.82,0-1.49.5-1.49,1.1s.67,1.09,1.49,1.09h3.88c.82,0,1.49-.49,1.49-1.09s-.67-1.1-1.49-1.1Zm-58.23,0h-3.88c-.82,0-1.49.5-1.49,1.1s.67,1.09,1.49,1.09h3.88c.82,0,1.49-.49,1.49-1.09s-.67-1.1-1.49-1.1Zm23.29,0h-3.88c-.82,0-1.49.5-1.49,1.1s.67,1.09,1.49,1.09h3.88c.82,0,1.49-.49,1.49-1.09s-.67-1.1-1.49-1.1Zm-11.64,0h-3.89c-.82,0-1.48.5-1.48,1.1s.66,1.09,1.48,1.09h3.89c.82,0,1.49-.49,1.49-1.09S534.63,531.44,533.81,531.44Z" transform="translate(-460.28 -455.64)"/><polygon class="cls-1" points="295.83 80.94 442.86 80.94 406.1 53.96 442.86 26.98 295.83 26.98 295.83 80.94"/><path class="cls-2" d="M761.62,530c-.82,0-1.49.49-1.49,1.09v2.55h3.47c.83,0,1.49-.49,1.49-1.09s-.66-1.1-1.49-1.1h-.49v-.36c0-.6-.67-1.09-1.49-1.09Zm0-9.21c-.82,0-1.49.49-1.49,1.1v3.06c0,.61.67,1.1,1.49,1.1s1.49-.49,1.49-1.1v-3.06c0-.61-.67-1.1-1.49-1.1Zm0-9.2c-.82,0-1.49.49-1.49,1.09v3.07c0,.6.67,1.09,1.49,1.09s1.49-.49,1.49-1.09v-3.07c0-.6-.67-1.09-1.49-1.09Zm0-9.21c-.82,0-1.49.5-1.49,1.1v3.07c0,.6.67,1.09,1.49,1.09s1.49-.49,1.49-1.09v-3.07c0-.6-.67-1.1-1.49-1.1Zm0-9.2c-.82,0-1.49.49-1.49,1.09v3.07c0,.61.67,1.1,1.49,1.1s1.49-.49,1.49-1.1v-3.07c0-.6-.67-1.09-1.49-1.09Zm2-7.59h-3.47v2.55c0,.6.67,1.09,1.49,1.09s1.49-.49,1.49-1.09v-.37h.49c.83,0,1.49-.5,1.49-1.1s-.66-1.09-1.49-1.09Zm69.89,2.18c.82,0,1.48-.49,1.48-1.09s-.66-1.09-1.48-1.09H829.6c-.82,0-1.49.49-1.49,1.09s.67,1.09,1.49,1.09Zm7.76-2.18c-.82,0-1.49.49-1.49,1.09s.67,1.09,1.49,1.09h3.88c.82,0,1.49-.5,1.49-1.1s-.67-1.09-1.49-1.09Zm-23.29,0c-.82,0-1.49.49-1.49,1.09s.67,1.09,1.49,1.09h3.88c.82,0,1.49-.5,1.49-1.1s-.67-1.09-1.49-1.09Zm46.58,0c-.82,0-1.49.49-1.49,1.09s.67,1.09,1.49,1.09h3.89c.82,0,1.49-.5,1.49-1.1s-.67-1.09-1.49-1.09Zm-11.65,0c-.82,0-1.48.49-1.48,1.09s.66,1.09,1.48,1.09h3.89c.82,0,1.49-.5,1.49-1.1s-.67-1.09-1.49-1.09Zm-46.58,0c-.82,0-1.49.49-1.49,1.09s.67,1.09,1.49,1.09h3.88c.82,0,1.49-.5,1.49-1.1s-.67-1.09-1.49-1.09Zm73.76,2.18c.82,0,1.49-.49,1.49-1.09s-.67-1.09-1.49-1.09h-3.88c-.82,0-1.49.49-1.49,1.09s.67,1.09,1.49,1.09ZM783,485.58c-.81,0-1.48.49-1.48,1.09s.67,1.09,1.48,1.09h3.89c.82,0,1.49-.5,1.49-1.1s-.67-1.09-1.49-1.09Zm-11.64,0c-.82,0-1.49.49-1.49,1.09s.67,1.09,1.49,1.09h3.88c.82,0,1.49-.5,1.49-1.1s-.67-1.09-1.49-1.09Zm23.29,0c-.82,0-1.48.49-1.48,1.09s.66,1.09,1.48,1.09h3.88c.83,0,1.5-.5,1.5-1.1s-.67-1.09-1.5-1.09Zm93.18,0c-.82,0-1.49.49-1.49,1.09a1,1,0,0,0,.6.88.93.93,0,0,0,.42.93,1.88,1.88,0,0,0,2.1,0l3.94-2.9Zm-13.4,10.84-2.58,1.9a.9.9,0,0,0,0,1.54,1.88,1.88,0,0,0,2.1,0l2.59-1.9a.9.9,0,0,0,0-1.54,1.89,1.89,0,0,0-2.11,0Zm-8.23,9.13,2.58-1.9a.9.9,0,0,0,0-1.54,1.92,1.92,0,0,0-2.11,0l-2.57,1.9a.89.89,0,0,0,0,1.54,1.69,1.69,0,0,0,1,.32,1.75,1.75,0,0,0,1.06-.32Zm15.51-11.38,2.58-1.9a.91.91,0,0,0,0-1.55,1.91,1.91,0,0,0-2.1,0l-2.59,1.9a.91.91,0,0,0,0,1.55,1.9,1.9,0,0,0,2.11,0ZM858.93,507.8l-2.46,1.81,2.46,1.8a1.81,1.81,0,0,0,1.05.32,1.84,1.84,0,0,0,1.06-.32.92.92,0,0,0,0-1.55l-.36-.25.36-.26a.92.92,0,0,0,0-1.55,1.92,1.92,0,0,0-2.11,0ZM879.61,525a.91.91,0,0,0,0,1.55l2.59,1.9a1.93,1.93,0,0,0,2.1,0,.91.91,0,0,0,0-1.55l-2.58-1.9a1.92,1.92,0,0,0-2.11,0Zm-10.82-7.94a.91.91,0,0,0,0-1.55l-2.58-1.89a1.87,1.87,0,0,0-2.1,0,.9.9,0,0,0,0,1.54l2.59,1.9a1.79,1.79,0,0,0,1,.32,1.81,1.81,0,0,0,1-.32Zm5.17,2.25a1.87,1.87,0,0,0-2.1,0,.9.9,0,0,0,0,1.55l2.58,1.89a1.9,1.9,0,0,0,2.11,0,.9.9,0,0,0,0-1.54l-2.59-1.9Zm13.41,11.39a.9.9,0,0,0-.42.93,1,1,0,0,0-.6.87c0,.6.67,1.09,1.49,1.09h5.57l-3.94-2.89a1.87,1.87,0,0,0-2.1,0Zm-11.18.7c-.82,0-1.49.5-1.49,1.1s.67,1.09,1.49,1.09h3.88c.82,0,1.49-.49,1.49-1.09s-.67-1.1-1.49-1.1Zm-11.65,0c-.82,0-1.49.5-1.49,1.1s.67,1.09,1.49,1.09h3.89c.82,0,1.49-.49,1.49-1.09s-.67-1.1-1.49-1.1Zm-58.23,0c-.82,0-1.49.5-1.49,1.1s.67,1.09,1.49,1.09h3.88c.82,0,1.49-.49,1.49-1.09s-.67-1.1-1.49-1.1Zm-11.65,0c-.82,0-1.48.5-1.48,1.1s.66,1.09,1.48,1.09h3.88c.83,0,1.5-.49,1.5-1.09s-.67-1.1-1.5-1.1Zm58.23,0c-.82,0-1.48.5-1.48,1.1s.66,1.09,1.48,1.09h3.89c.82,0,1.49-.49,1.49-1.09s-.67-1.1-1.49-1.1Zm-81.52,0c-.82,0-1.49.5-1.49,1.1s.67,1.09,1.49,1.09h3.88c.82,0,1.49-.49,1.49-1.09s-.67-1.1-1.49-1.1Zm11.64,0c-.81,0-1.48.5-1.48,1.1s.67,1.09,1.48,1.09h3.89c.82,0,1.49-.49,1.49-1.09s-.67-1.1-1.49-1.1Zm58.24,0c-.82,0-1.49.5-1.49,1.1s.67,1.09,1.49,1.09h3.88c.82,0,1.49-.49,1.49-1.09s-.67-1.1-1.49-1.1Zm-23.29,0c-.82,0-1.49.5-1.49,1.1s.67,1.09,1.49,1.09h3.88c.82,0,1.49-.49,1.49-1.09s-.67-1.1-1.49-1.1Zm10.15,1.1c0,.6.67,1.09,1.49,1.09h3.89c.82,0,1.48-.49,1.48-1.09s-.66-1.1-1.48-1.1H829.6C828.78,531.44,828.11,531.94,828.11,532.54Z" transform="translate(-460.28 -455.64)"/><polygon class="cls-3" points="147.03 80.94 55.14 53.96 55.14 0 147.03 26.98 147.03 80.94"/><polygon class="cls-3" points="293.71 80.94 385.6 53.96 385.6 0 293.71 26.98 293.71 80.94"/><rect class="cls-4" x="55.14" width="330.81" height="53.96"/><path class="cls-2" d="M522.91,504.46h-.49v-.36c0-.6-.68-1.09-1.49-1.09s-1.49.49-1.49,1.09v2.55h3.47c.82,0,1.49-.49,1.49-1.09s-.67-1.1-1.49-1.1Zm154,0h-4c-.82,0-1.49.49-1.49,1.1s.67,1.09,1.49,1.09h4c.82,0,1.49-.49,1.49-1.09s-.67-1.1-1.49-1.1Zm-35.53,0h-4c-.82,0-1.49.49-1.49,1.1s.67,1.09,1.49,1.09h4c.82,0,1.49-.49,1.49-1.09s-.67-1.1-1.49-1.1Zm11.85,0h-4c-.83,0-1.49.49-1.49,1.1s.66,1.09,1.49,1.09h4c.81,0,1.48-.49,1.48-1.09s-.67-1.1-1.48-1.1Zm11.84,0h-3.95c-.82,0-1.49.49-1.49,1.1s.67,1.09,1.49,1.09H665c.82,0,1.48-.49,1.48-1.09s-.66-1.1-1.48-1.1Zm23.69,0h-4c-.81,0-1.48.49-1.48,1.1s.66,1.09,1.48,1.09h4c.81,0,1.48-.49,1.48-1.09s-.67-1.1-1.48-1.1Zm47.36,0h-3.94c-.83,0-1.49.49-1.49,1.1s.66,1.09,1.49,1.09h3.94c.83,0,1.5-.49,1.5-1.09s-.67-1.1-1.5-1.1Zm-11.84,0h-4c-.82,0-1.49.49-1.49,1.1s.67,1.09,1.49,1.09h4c.83,0,1.49-.49,1.49-1.09s-.67-1.1-1.49-1.1Zm-11.84,0h-4c-.81,0-1.48.49-1.48,1.1s.67,1.09,1.48,1.09h4c.82,0,1.48-.49,1.48-1.09s-.66-1.1-1.48-1.1Zm-11.85,0h-3.94c-.83,0-1.49.49-1.49,1.1s.66,1.09,1.49,1.09h3.94c.83,0,1.49-.49,1.49-1.09s-.66-1.1-1.49-1.1Zm-118.43,0h-3.94c-.82,0-1.49.49-1.49,1.1s.67,1.09,1.49,1.09h3.94c.83,0,1.5-.49,1.5-1.09s-.67-1.1-1.5-1.1Zm-35.53,0h-3.94c-.82,0-1.49.49-1.49,1.1s.67,1.09,1.49,1.09h3.94c.83,0,1.49-.49,1.49-1.09s-.66-1.1-1.49-1.1Zm23.7,0h-4c-.82,0-1.48.49-1.48,1.1s.66,1.09,1.48,1.09h4c.81,0,1.48-.49,1.48-1.09s-.67-1.1-1.48-1.1Zm177.64,0H744c-.82,0-1.49.49-1.49,1.1s.67,1.09,1.49,1.09h3.95c.82,0,1.48-.49,1.48-1.09s-.66-1.1-1.48-1.1Zm-118.43,0h-4c-.82,0-1.49.49-1.49,1.1s.67,1.09,1.49,1.09h4c.82,0,1.48-.49,1.48-1.09s-.66-1.1-1.48-1.1Zm-94.75,0h-4c-.82,0-1.48.49-1.48,1.1s.66,1.09,1.48,1.09h4c.82,0,1.49-.49,1.49-1.09s-.67-1.1-1.49-1.1Zm82.9,0H613.7c-.82,0-1.48.49-1.48,1.1s.66,1.09,1.48,1.09h3.95c.82,0,1.49-.49,1.49-1.09s-.67-1.1-1.49-1.1Zm-23.68,0h-4c-.82,0-1.49.49-1.49,1.1s.67,1.09,1.49,1.09h4c.82,0,1.49-.49,1.49-1.09s-.67-1.1-1.49-1.1Zm11.84,0h-3.95c-.82,0-1.49.49-1.49,1.1s.67,1.09,1.49,1.09h3.95c.82,0,1.49-.49,1.49-1.09s-.67-1.1-1.49-1.1Zm-47.37,0h-4c-.82,0-1.49.49-1.49,1.1s.67,1.09,1.49,1.09h4c.82,0,1.49-.49,1.49-1.09s-.67-1.1-1.49-1.1Zm248.7,0h-3.95c-.82,0-1.49.49-1.49,1.1s.67,1.09,1.49,1.09h3.95c.82,0,1.49-.49,1.49-1.09s-.67-1.1-1.49-1.1Zm-35.53,0h-3.94c-.83,0-1.5.49-1.5,1.1s.67,1.09,1.49,1.09h4c.82,0,1.49-.49,1.49-1.09s-.67-1.1-1.49-1.1Zm23.69,0h-3.95c-.82,0-1.49.49-1.49,1.1s.67,1.09,1.49,1.09h3.95c.82,0,1.48-.49,1.48-1.09s-.66-1.1-1.48-1.1Zm23.69,0h-4c-.82,0-1.48.49-1.48,1.1s.66,1.09,1.48,1.09h4c.82,0,1.48-.49,1.48-1.09s-.66-1.1-1.48-1.1Zm-59.22,0h-3.95c-.82,0-1.49.49-1.49,1.1s.67,1.09,1.49,1.09h3.95c.83,0,1.49-.49,1.49-1.09s-.66-1.1-1.49-1.1Zm71.05,0h-3.94c-.82,0-1.49.49-1.49,1.1s.67,1.09,1.49,1.09h3.94c.83,0,1.5-.49,1.5-1.09s-.67-1.1-1.5-1.1Zm-47.36,0h-4c-.82,0-1.49.49-1.49,1.1s.66,1.09,1.49,1.09h4c.81,0,1.48-.49,1.48-1.09s-.67-1.1-1.48-1.1ZM840.71,503c-.83,0-1.5.49-1.5,1.09v.36h-.5c-.82,0-1.49.49-1.49,1.1s.67,1.09,1.49,1.09h3.47V504.1c0-.6-.66-1.09-1.48-1.09Zm0-9.21c-.83,0-1.5.49-1.5,1.09V498c0,.6.66,1.09,1.49,1.09s1.48-.49,1.48-1.09v-3.08c0-.6-.66-1.09-1.48-1.09Zm0-18.41c-.83,0-1.5.49-1.5,1.1v3.06c0,.61.66,1.1,1.49,1.1s1.48-.49,1.48-1.1v-3.06c0-.61-.66-1.09-1.48-1.1Zm0-9.2c-.83,0-1.5.49-1.5,1.09v3.07c0,.6.66,1.1,1.49,1.1s1.48-.5,1.48-1.1v-3.07c0-.6-.66-1.09-1.48-1.09Zm0,18.41c-.83,0-1.5.49-1.5,1.09v3.07c0,.6.66,1.09,1.49,1.09s1.48-.49,1.48-1.09v-3.07c0-.6-.66-1.09-1.48-1.09Zm-2-26c-.82,0-1.49.49-1.49,1.09s.67,1.09,1.49,1.09h.5v.37c0,.6.66,1.09,1.49,1.09s1.48-.49,1.48-1.09V458.6ZM594,458.6h-4c-.82,0-1.49.49-1.49,1.09s.67,1.09,1.49,1.09h4c.82,0,1.49-.49,1.49-1.09s-.67-1.09-1.49-1.09Zm11.84,0h-3.94c-.83,0-1.49.49-1.49,1.09s.66,1.09,1.49,1.09h3.94c.83,0,1.49-.49,1.49-1.09s-.66-1.09-1.49-1.09Zm-71.06,0h-3.94c-.82,0-1.49.49-1.49,1.09s.67,1.09,1.49,1.09h3.94c.82,0,1.49-.49,1.49-1.09s-.67-1.09-1.49-1.09Zm23.69,0h-4c-.82,0-1.48.49-1.48,1.09s.66,1.09,1.48,1.09h4c.82,0,1.49-.49,1.49-1.09s-.67-1.09-1.49-1.09Zm189.49,0H744c-.82,0-1.49.49-1.49,1.09s.67,1.09,1.49,1.09h3.95c.82,0,1.49-.49,1.49-1.09s-.67-1.09-1.49-1.09Zm82.9,0h-4c-.82,0-1.49.49-1.49,1.09s.67,1.09,1.49,1.09h4c.82,0,1.49-.49,1.49-1.09s-.67-1.09-1.49-1.09Zm-11.84,0h-4c-.82,0-1.48.49-1.48,1.09s.66,1.09,1.48,1.09h4c.82,0,1.48-.49,1.48-1.09s-.66-1.09-1.48-1.09Zm-236.86,0h-4c-.82,0-1.49.49-1.49,1.09s.67,1.09,1.49,1.09h4c.82,0,1.49-.49,1.49-1.09s-.67-1.09-1.49-1.09Zm-35.54,0h-3.94c-.82,0-1.49.49-1.49,1.09s.67,1.09,1.49,1.09h3.94c.83,0,1.49-.49,1.49-1.09s-.66-1.09-1.49-1.09Zm23.7,0h-4c-.82,0-1.48.49-1.48,1.09s.66,1.09,1.48,1.09h4c.82,0,1.48-.49,1.48-1.09s-.66-1.09-1.48-1.09Zm142.11,0h-3.95c-.82,0-1.49.49-1.49,1.09s.67,1.09,1.49,1.09h3.95c.82,0,1.48-.49,1.48-1.09s-.66-1.09-1.48-1.09Zm-11.85,0h-3.94c-.82,0-1.49.49-1.49,1.09s.67,1.09,1.49,1.09h3.94c.83,0,1.49-.49,1.49-1.09s-.66-1.09-1.49-1.09Zm71.06,0h-3.94c-.83,0-1.49.49-1.49,1.09s.66,1.09,1.49,1.09h3.94c.82,0,1.49-.49,1.49-1.09s-.67-1.09-1.49-1.09Zm-82.89,0h-4c-.82,0-1.49.49-1.49,1.09s.67,1.09,1.48,1.09h4c.81,0,1.48-.49,1.48-1.09s-.67-1.09-1.48-1.09Zm35.52,0h-4c-.82,0-1.48.49-1.48,1.09s.66,1.09,1.48,1.09h4c.83,0,1.49-.49,1.49-1.09s-.67-1.09-1.49-1.09Zm-106.59,0h-3.94c-.82,0-1.49.49-1.49,1.09s.67,1.09,1.49,1.09h3.94c.83,0,1.49-.49,1.49-1.09s-.66-1.09-1.49-1.09Zm142.12,0h-3.95c-.82,0-1.48.49-1.48,1.09s.66,1.09,1.48,1.09h3.95c.83,0,1.49-.49,1.49-1.09s-.66-1.09-1.49-1.09Zm-23.69,0h-3.94c-.83,0-1.49.49-1.49,1.09s.66,1.09,1.49,1.09h3.94c.83,0,1.5-.49,1.5-1.09s-.67-1.09-1.5-1.09Zm47.38,0h-4c-.82,0-1.49.49-1.49,1.09s.67,1.09,1.49,1.09h4c.82,0,1.48-.49,1.48-1.09s-.66-1.09-1.48-1.09Zm-142.12,0h-4c-.82,0-1.49.49-1.49,1.09s.67,1.09,1.49,1.09h4c.82,0,1.49-.49,1.49-1.09s-.67-1.09-1.49-1.09Zm35.53,0h-4c-.82,0-1.49.49-1.49,1.09s.67,1.09,1.49,1.09h4c.82,0,1.49-.49,1.49-1.09s-.67-1.09-1.49-1.09Zm-47.37,0h-4c-.82,0-1.49.49-1.49,1.09s.67,1.09,1.49,1.09h4c.82,0,1.48-.49,1.48-1.09s-.66-1.09-1.48-1.09Zm177.64,0h-3.95c-.82,0-1.49.49-1.49,1.09s.67,1.09,1.49,1.09h3.95c.82,0,1.49-.49,1.49-1.09s-.67-1.09-1.49-1.09ZM665,458.6h-3.95c-.82,0-1.49.49-1.49,1.09s.67,1.09,1.49,1.09H665c.82,0,1.48-.49,1.48-1.09s-.66-1.09-1.48-1.09Zm-11.84,0h-4c-.83,0-1.49.49-1.49,1.09s.66,1.09,1.49,1.09h4c.82,0,1.48-.49,1.48-1.09s-.66-1.09-1.48-1.09Zm142.11,0h-3.95c-.82,0-1.49.49-1.49,1.09s.67,1.09,1.49,1.09h3.95c.82,0,1.49-.49,1.49-1.09s-.67-1.09-1.49-1.09Zm-272.39,0h-3.47v2.55c0,.6.67,1.09,1.49,1.09s1.49-.49,1.49-1.09v-.37h.49c.82,0,1.49-.49,1.49-1.09s-.67-1.09-1.49-1.09Zm-2,22c.82,0,1.49-.49,1.49-1.1v-3.06c0-.61-.68-1.09-1.49-1.09s-1.49.48-1.49,1.09v3.06c0,.61.67,1.1,1.49,1.1Zm0-9.2c.82,0,1.49-.5,1.49-1.1v-3.07c0-.6-.68-1.09-1.49-1.09s-1.49.49-1.49,1.09v3.07c0,.6.67,1.1,1.49,1.1Zm0,27.61c.82,0,1.49-.49,1.49-1.09v-3.08c0-.6-.68-1.09-1.49-1.09s-1.49.49-1.49,1.09V498c0,.6.67,1.09,1.49,1.09Zm0-9.21c.82,0,1.49-.48,1.49-1.09v-3.07c0-.6-.68-1.09-1.49-1.09s-1.49.49-1.49,1.09v3.07C519.44,489.37,520.11,489.85,520.93,489.85Z" transform="translate(-460.28 -455.64)"/><text x="-460.28" y="-455.64"></text></svg>